<svg width="42" height="42" viewBox="0 0 42 42" fill="none" xmlns="http://www.w3.org/2000/svg">
<path d="M22.2559 5.5C23.5821 5.5 24.8618 6.0184 25.8115 6.95312C25.9299 7.06966 26.042 7.19177 26.1475 7.31836C26.5395 7.22266 26.9442 7.17285 27.3535 7.17285C28.6799 7.17287 29.9594 7.69114 30.9092 8.62598C31.4566 9.16479 31.8672 9.81708 32.1182 10.5293C32.2287 10.522 32.3398 10.5176 32.4512 10.5176C33.7775 10.5176 35.0571 11.036 36.0068 11.9707C36.9579 12.9069 37.5 14.1851 37.5 15.5264V23.9648C37.5 27.3022 36.1526 30.4952 33.7676 32.8428C31.3839 35.189 28.1589 36.5 24.8047 36.5H21.4062V36.4941C19.433 36.4401 17.4963 35.9337 15.752 35.0088C13.9031 34.0284 12.3263 32.6083 11.166 30.874L11.1611 30.8672L10.8281 30.3652L10.8262 30.3623C10.2379 29.4733 8.32202 26.1799 5.15723 20.6426C4.50515 19.5016 4.32856 18.1501 4.6709 16.8789L4.74121 16.6436C5.11827 15.4761 5.91257 14.4899 6.96777 13.8672H6.96875C8.04998 13.2291 9.3121 12.9668 10.5566 13.1172C11.0941 13.1822 11.6169 13.3225 12.1094 13.5322V12.1816C12.1094 10.8404 12.6515 9.56213 13.6025 8.62598C14.5522 7.69119 15.8319 7.17292 17.1582 7.17285C17.5671 7.17285 17.9715 7.22284 18.3633 7.31836C18.4689 7.19156 18.5816 7.06983 18.7002 6.95312C19.6499 6.01836 20.9296 5.50003 22.2559 5.5Z" fill="black" stroke="white" stroke-width="5"/>
</svg>
