<svg width="64" height="44" viewBox="0 0 64 44" fill="none" xmlns="http://www.w3.org/2000/svg">
<g filter="url(#filter0_i_40_575)">
<path d="M17.013 17.6797L19.2813 21.013V29.8125L18.7474 30.3464H12.5599V17.6797H17.013Z" fill="#D3E5F6"/>
<path fill-rule="evenodd" clip-rule="evenodd" d="M25.3333 38.6667H28.3802L33.3333 35.0781V44H30.6667L25.3333 40H4L0 36V12L4 8H25.3333V38.6667ZM9.33333 14.6667V33.3333H20L22.6667 30.6667V20L18.6667 14.6667H9.33333Z" fill="#D3E5F6"/>
<path d="M49.8932 17.3854L51.013 18.9323V22.3203H44.5599V17.3854H49.8932Z" fill="#D3E5F6"/>
<path d="M50.7188 9.65365V10.6927L47.2005 14.401H44.5599V9.65365H50.7188Z" fill="#D3E5F6"/>
<path fill-rule="evenodd" clip-rule="evenodd" d="M64 2.11198V28.138L61.8125 30.2526H33.1797L29.3333 33.0365V2.11198L31.5208 0H61.8125L64 2.11198ZM41.3333 6.66667V25.3333H51.7057L54.2135 23.7865V18.401L51.4922 14.401H51.3594L53.974 11.6797V8.82552L52.4531 6.66667H41.3333Z" fill="#D3E5F6"/>
</g>
<defs>
<filter id="filter0_i_40_575" x="0" y="0" width="64" height="45" filterUnits="userSpaceOnUse" color-interpolation-filters="sRGB">
<feFlood flood-opacity="0" result="BackgroundImageFix"/>
<feBlend mode="normal" in="SourceGraphic" in2="BackgroundImageFix" result="shape"/>
<feColorMatrix in="SourceAlpha" type="matrix" values="0 0 0 0 0 0 0 0 0 0 0 0 0 0 0 0 0 0 127 0" result="hardAlpha"/>
<feOffset dy="2"/>
<feGaussianBlur stdDeviation="0.5"/>
<feComposite in2="hardAlpha" operator="arithmetic" k2="-1" k3="1"/>
<feColorMatrix type="matrix" values="0 0 0 0 0 0 0 0 0 0 0 0 0 0 0 0 0 0 0.1 0"/>
<feBlend mode="normal" in2="shape" result="effect1_innerShadow_40_575"/>
</filter>
</defs>
</svg>
